<?xml version="1.0" encoding="utf-8"?>
<!-- Generator: Adobe Illustrator 26.3.1, SVG Export Plug-In . SVG Version: 6.00 Build 0)  -->
<svg version="1.1" id="Camada_1" xmlns="http://www.w3.org/2000/svg" xmlns:xlink="http://www.w3.org/1999/xlink" x="0px" y="0px"
	 viewBox="0 0 723.5 659.5" style="enable-background:new 0 0 723.5 659.5;" xml:space="preserve">
<style type="text/css">
	.st0{fill-rule:evenodd;clip-rule:evenodd;fill:#197432;}
	.st1{fill:#197432;}
</style>
<g>
	<path id="Path_0_00000038383566451794312380000004768282776356936068_" class="st0" d="M326.1,9.1c1.2,1.3,18,24.3,37.5,51.3
		c19.5,26.9,42.3,58.7,50.9,70.7c8.5,12,28.1,39.9,43.6,62.2c15.5,22.2,41.5,60.3,57.9,84.7c16.4,24.4,40.2,60,52.8,79.2
		c12.6,19.2,27.8,42.6,33.7,52c6,9.4,18.5,29.7,27.9,45.1c9.4,15.4,24.4,40.9,33.4,56.7c9,15.8,22.5,41.3,30,56.7
		c7.5,15.4,15.4,33.6,17.7,40.4c2.2,6.8,3.7,13.5,3.1,14.8c-0.8,1.9-3.1,2.1-14.1,1.2c-9.2-0.8-16.7-2.6-25.2-6.2
		c-6.6-2.8-16.2-7.8-21.4-11.2s-15.2-11.9-22.3-18.7c-7.2-6.8-18-18.4-24.1-25.7c-6.1-7.3-14.6-17.8-18.9-23.3
		c-4.3-5.6-18.2-24.8-30.9-42.7c-12.7-18-31.5-44.2-41.7-58.3c-10.2-14.1-24.5-33-31.8-42c-7.3-9-20.6-24.3-29.7-34
		c-9-9.7-24.8-25.4-35.1-34.8c-10.3-9.4-24.6-21.1-31.9-25.9c-7.3-4.9-16.7-10-21-11.5c-4.3-1.5-12.7-3.1-18.6-3.6
		c-9.3-0.8-12.1-0.3-19.3,2.8c-5.4,2.4-10.9,6.5-15.3,11.5c-3.8,4.3-8.8,11.6-11.2,16.3c-2.4,4.7-7.5,17.3-11.4,28
		c-4,10.7-14.9,42.1-24.4,69.9c-9.5,27.8-22.1,62.7-27.9,77.7c-5.9,15-15.5,37-21.5,49c-5.9,12-14.3,27-18.5,33.4
		c-4.2,6.4-11.5,15.5-16.1,20.1c-4.6,4.6-11.9,10.7-16.1,13.4c-4.3,2.7-12.8,7.5-19,10.6c-6.2,3.1-16.7,7.5-23.3,9.8
		c-11.2,3.9-14.3,4.2-45.4,4.8c-30.9,0.6-34.4,0.4-46.6-2.8c-7.3-1.9-14.1-4.3-15.2-5.2c-1.1-1-2-2.8-2-4.1
		c0-1.3,9.6-13.5,21.2-27.2s30.7-37.5,42.2-52.8c11.5-15.4,29.5-40.9,40-56.7c10.5-15.8,26.4-41.3,35.3-56.7
		c9-15.4,22.6-39.9,30.2-54.4c7.6-14.5,19.9-39,27.2-54.4c7.4-15.4,17.3-37.1,22.1-48.2c6.2-14.4,8.4-21.3,7.8-24.1
		c-0.5-2.1-7.6-21.4-15.8-42.7c-8.2-21.4-15.4-39.6-16.2-40.4c-0.9-1-5.6-0.1-13.4,2.7c-6.6,2.4-21.1,5.8-32.2,7.6
		c-11.1,1.8-25.8,5.3-32.6,7.7c-6.8,2.5-20.5,9-30.3,14.6c-9.8,5.6-18.2,10.1-18.7,10c-0.4-0.1-9.9-11.7-21-25.8
		c-11.1-14.1-22.7-29.1-25.6-33.2c-5.4-7.4-5.4-7.6-2.7-11.5c1.5-2.2,6.4-6.6,10.9-9.9c4.5-3.3,11.7-7.4,15.9-9.2
		c4.3-1.8,12.3-4.3,17.9-5.6c5.6-1.3,16-3.1,23.3-3.9c7.3-0.9,19.5-3.4,27.2-5.6c7.8-2.2,18.8-6.9,24.9-10.5
		c6-3.6,14.2-9.5,18.3-13.1c4.1-3.7,8.2-6.4,9.3-6.1s5.4,8.2,9.7,17.6c4.3,9.4,12.1,26.8,17.5,38.7c5.4,11.9,11,26.9,12.6,33.3
		c1.5,6.4,7.6,27.2,13.6,46.2s11.3,34,11.9,33.4c0.6-0.6,6.8-15.4,13.7-32.9c6.9-17.5,19.5-52.5,28.1-77.7
		c8.6-25.2,19.6-60.2,24.6-77.7c5-17.5,9.9-35,10.9-38.8C323.8,7.7,324.3,7.1,326.1,9.1z"/>
</g>
<g>
	<path class="st1" d="M374.7,576.6c-68.9,0-108.2,16.9-108.2,37.8h216.5C482.9,593.6,443.6,576.6,374.7,576.6z"/>
	<path class="st1" d="M365.6,596.9c0,0-0.4-1.9-1.1-5.4c-0.8-3.5-1.9-8.4-3.3-14.4c-0.6-3.1-1.3-6.4-1.7-10.1
		c-0.5-3.6-0.7-7.6-0.4-11.7c0.2-4.1,1-8.4,2.6-12.7c1.6-4.3,4-8.4,7.6-12.3c1.5-1.6,3.4-3.3,5.2-5c1.9-1.6,3.7-3.1,5.6-4.6
		c3.8-2.9,7.6-5.6,11.3-8.2c3.6-2.6,7.2-5.1,10.3-7.5c3.2-2.4,5.9-4.9,8.3-7.2c2.3-2.4,4.2-4.7,5.7-6.8c0.7-1.1,1.3-2.1,1.9-3.1
		c0.5-1,0.9-1.9,1.2-2.7c0.9-1.6,1-3,1.3-3.9c0.3-0.9,0.4-1.4,0.4-1.4s-0.1,0.5-0.1,1.4c-0.2,0.9-0.1,2.4-0.6,4.1
		c-0.2,0.9-0.5,1.8-0.8,2.9c-0.4,1-0.9,2.1-1.4,3.3c-1.1,2.3-2.6,4.9-4.6,7.6c-2,2.7-4.4,5.5-7.2,8.3c-2.8,2.9-5.9,5.7-9,8.7
		c-3.1,2.9-6.4,5.9-9.5,9c-1.6,1.5-3,3.1-4.4,4.7c-1.3,1.6-2.6,3-3.8,4.9l-0.9,1.3l-0.1,0.2l0,0c0.1-0.1-0.2,0.3,0.2-0.2l0,0.1
		l-0.1,0.3l-0.3,0.6c-0.4,0.8-0.8,1.6-1.2,2.5c-0.6,1.7-1.2,3.4-1.4,5.1c-0.6,3.4-0.7,6.9-0.2,10.3c0.4,3.4,1.2,6.7,2.2,9.9
		c0.9,3.1,2.1,6.2,3.2,8.9c2.4,5.7,4.4,10.5,5.8,13.9c1.4,3.4,2.1,5.4,2.1,5.4L365.6,596.9z"/>
	<path class="st1" d="M370.1,530.1c0,0-0.1-1.6-0.3-4.5c0-0.7-0.1-1.5-0.1-2.4c-0.1-0.7-0.2-1.5-0.4-2.4c-0.2-1.7-0.5-3.7-1.1-5.9
		c-0.5-2.3-1.2-4.7-2-7.2c-0.7-2.6-1.8-5.3-2.9-8.1c-2.2-5.6-4.9-11.6-7.4-17.7c-1.3-3.1-2.5-6.2-3.6-9.3c-1.1-3.1-2-6.2-2.8-9.3
		c-0.7-3.1-1.4-6-1.7-8.9c-0.5-2.8-0.5-5.6-0.6-8.1c-0.2-2.5,0.2-4.8,0.3-6.8c0.1-2,0.4-3.8,0.7-5.2c0.5-2.8,0.8-4.4,0.8-4.4
		s-0.1,1.6-0.3,4.5c-0.1,1.4-0.2,3.2,0,5.1c0.2,2,0,4.2,0.6,6.6c0.4,2.4,0.7,5,1.5,7.6c0.6,2.7,1.6,5.4,2.7,8.2
		c1.1,2.8,2.3,5.6,3.8,8.4c1.4,2.8,3,5.6,4.6,8.5c3.2,5.6,6.6,11.2,9.7,16.7c1.4,2.8,3,5.5,4.1,8.2c1.3,2.7,2.4,5.2,3.2,7.7
		c1,2.4,1.7,4.8,2.2,7c0.3,1.1,0.6,2.1,0.8,3.1c0.2,0.9,0.3,1.6,0.4,2.4c0.5,2.8,0.8,4.4,0.8,4.4L370.1,530.1z"/>
	<g>
		<g>
			<path class="st1" d="M420.2,476c0,0,1.9-12-4.4-19.5c-6.2-7.5-23.6-10-26.2-12.2c0,0,1.1,17.8,6.3,22.4
				c4.3,3.8,14.6,10.7,19.9,10.2c0,0-12.6-11.5-12.9-17.8C403.1,459.2,415.4,475.1,420.2,476z"/>
		</g>
		<path class="st1" d="M428.8,485.4c0,0,62.6-12.8,46.3-53.7c0,0-6.3,3.6-20.9,9c-14.6,5.3-33.8,13.9-28.9,43.6
			c0.5,3.2,15.1-29.2,31.6-34.7C456.9,449.5,427.5,482.2,428.8,485.4z"/>
	</g>
	<path class="st1" d="M346.1,426.7c0,0,13.8-26.5-20-30.8c0,0,0.2,3.2-1.4,10c-1.6,6.8-2.7,16.1,19.3,21.8
		c2.4,0.6-14.5-13-12.3-20.5C331.7,407.1,343.4,426.4,346.1,426.7z"/>
	<g>
		<path class="st1" d="M355,436.3c0,0,13.4-2.9,19.3-9c5.9-6.2,2.8-17.2,4.3-19.4c0,0-18.6,6.6-21.7,11.1
			c-2.6,3.8-6.5,12.1-4.2,15.1c0,0,8-11.2,14.6-13.5C367.2,420.6,354.3,433.1,355,436.3z"/>
	</g>
</g>
</svg>
