<?xml version="1.0" encoding="utf-8"?>
<!-- Generator: Adobe Illustrator 26.0.3, SVG Export Plug-In . SVG Version: 6.00 Build 0)  -->
<svg version="1.1" id="Camada_1" xmlns="http://www.w3.org/2000/svg" xmlns:xlink="http://www.w3.org/1999/xlink" x="0px" y="0px"
	 viewBox="0 0 1180.83 420" style="enable-background:new 0 0 1180.83 420;" xml:space="preserve">
<style type="text/css">
	.st0{fill:#00B296;}
	.st1{fill:#E8621E;}
	.st2{fill:url(#SVGID_1_);}
	.st3{fill:url(#SVGID_00000178171786166388631520000016912071126357293493_);}
	.st4{fill:url(#SVGID_00000065773334098467104720000012016945726608469181_);}
	.st5{fill:url(#SVGID_00000032650101476444328280000002087103452784388022_);}
	.st6{fill:url(#SVGID_00000048466804494249858400000009676905859067371650_);}
	.st7{fill:url(#SVGID_00000175304241373684292920000009016170553921296830_);}
	.st8{fill:url(#SVGID_00000153697840982506432650000008730408924014833792_);}
	.st9{fill:url(#SVGID_00000015335806994235389340000007105851446683570314_);}
	.st10{fill:url(#SVGID_00000017478692958307001100000000142731362924926873_);}
	.st11{fill:url(#SVGID_00000031903903428950673960000012051465489143229848_);}
	.st12{fill:url(#SVGID_00000119831676532767766560000015150983940203203981_);}
	.st13{fill:url(#SVGID_00000069367723563896144360000009757051319565429889_);}
	.st14{fill:url(#SVGID_00000132055423533115006250000012378504319032260758_);}
	.st15{fill:url(#SVGID_00000049193585153907472280000003775870780158808980_);}
	.st16{fill:url(#SVGID_00000105394966967699724190000008978241020214394282_);}
	.st17{fill:url(#SVGID_00000148636327932330535240000013729547464660900502_);}
	.st18{fill:url(#SVGID_00000145763783931524129460000001035353002079798934_);}
	.st19{fill:url(#SVGID_00000060740387632542626890000001566501479973924501_);}
	.st20{fill:url(#SVGID_00000029742243500754065230000017170845131646418321_);}
	.st21{fill:url(#SVGID_00000117645852044665496750000016831828893191951295_);}
	.st22{fill:url(#SVGID_00000130616324382954821350000000883519750892873913_);}
	.st23{fill:url(#SVGID_00000029022146258886183160000008834243610115712390_);}
	.st24{fill:url(#SVGID_00000011721023599726316050000015403289525660754338_);}
	.st25{fill:url(#SVGID_00000023247937070910356510000007397485529713015967_);}
	.st26{fill:url(#SVGID_00000119825682526664588560000011283405337222970529_);}
	.st27{fill:url(#SVGID_00000014596262702920461020000009217666423265086888_);}
	.st28{fill:url(#SVGID_00000088125194224646085250000003820702425372946615_);}
	.st29{fill:url(#SVGID_00000057124590483018149550000003752866869315085211_);}
	.st30{fill:url(#SVGID_00000060018845530372302880000016533125990626195386_);}
	.st31{fill:url(#SVGID_00000045606959458913768070000010824707909442329259_);}
	.st32{fill:url(#SVGID_00000176002513901057078480000015266979943654288812_);}
	.st33{fill-rule:evenodd;clip-rule:evenodd;fill:#DB4682;}
	.st34{fill:url(#SVGID_00000075125917513189262130000005658059307803120062_);}
	.st35{fill:url(#SVGID_00000018235580034151688400000001237327171831062416_);}
	.st36{fill:url(#SVGID_00000163065263133143378520000006392154813440340613_);}
	.st37{fill:url(#SVGID_00000136411889265706680460000009543634324953273513_);}
	.st38{fill:url(#SVGID_00000109014046323629479050000005310056192099188916_);}
	.st39{fill:url(#SVGID_00000083806054699962618610000017504984414936411067_);}
	.st40{fill:url(#SVGID_00000106114667200656311360000009730017415384360605_);}
	.st41{fill:url(#SVGID_00000050626221063536662170000002850171404418372795_);}
	.st42{fill:url(#SVGID_00000166660074339329639910000000085942950434381457_);}
	.st43{fill:url(#SVGID_00000167385145264843122360000012267626252358611588_);}
	.st44{fill:url(#SVGID_00000054975251415307944710000011507745718210219922_);}
	.st45{fill:url(#SVGID_00000142897649443843361590000014669233899719387804_);}
	.st46{fill:url(#SVGID_00000162337684722330400630000003129637180592845465_);}
	.st47{fill:url(#SVGID_00000036960357791318067290000017571491413983285418_);}
	.st48{fill:url(#SVGID_00000081619437598374490870000010266299252568355724_);}
	.st49{fill:url(#SVGID_00000067923020168579630290000016829198196412708270_);}
	.st50{fill:url(#SVGID_00000008864700676109841420000003053193677864287417_);}
	.st51{fill:url(#SVGID_00000058563997604346631260000014200608133007859863_);}
	.st52{fill:url(#SVGID_00000100341562914390552960000001667896582962215845_);}
	.st53{fill:url(#SVGID_00000147183557164724236310000004072902990714103445_);}
	.st54{fill:url(#SVGID_00000111174670576198654370000016169263260583443362_);}
	.st55{fill:url(#SVGID_00000165952764452594160230000014241597355323889565_);}
	.st56{fill:url(#SVGID_00000144296637668928828570000009789695099432908931_);}
	.st57{fill:url(#SVGID_00000026875278087807574370000003357723213397147317_);}
	.st58{fill:url(#SVGID_00000044178622635730234150000016972223269481160889_);}
	.st59{fill:url(#SVGID_00000074439941771706051490000002552927894047786899_);}
	.st60{fill:url(#SVGID_00000091705602837657660060000002048714165872184505_);}
	.st61{fill:url(#SVGID_00000042008517925689106500000001057753212623579536_);}
	.st62{fill:url(#SVGID_00000160877823938792749860000004299229302427436701_);}
	.st63{fill:url(#SVGID_00000029018683374511390410000014567104342104557243_);}
	.st64{fill:url(#SVGID_00000054224393288344765770000008750963984414091175_);}
	.st65{fill:#7E44F3;}
	.st66{fill:#DB4682;}
	.st67{fill:#0047C6;}
</style>
<g>
	<g>
		<linearGradient id="SVGID_1_" gradientUnits="userSpaceOnUse" x1="359.7137" y1="277.6779" x2="976.1981" y2="292.0985">
			<stop  offset="0" style="stop-color:#0047C6"/>
			<stop  offset="1" style="stop-color:#DB4682"/>
		</linearGradient>
		<path class="st2" d="M933.87,269.66c-2.47-2.26-5.04-3.98-7.7-5.15c-4.26-1.86-8.62-2.66-13.08-2.39h-0.24
			c-4.58,0.27-8.36,1.24-11.37,2.91c-3.01,1.68-5.97,4.08-8.9,7.22c-2.23,2.61-3.91,5.5-5.03,8.7c-1.12,3.19-1.68,6.44-1.68,9.73
			c0,3.08,0.48,6.06,1.44,8.94l0.16,0.4c1.22,3.62,3.15,6.9,5.78,9.85c2.63,2.95,5.78,5.28,9.45,6.98c3.67,1.6,7.53,2.39,11.57,2.39
			c4.73,0,9.15-1.04,13.24-3.11c2.29-1.22,4.22-2.54,5.78-3.95c1.57-1.41,3.02-3.04,4.35-4.91c1.76-2.45,3.08-5.09,3.99-7.94
			c0.9-2.84,1.36-5.76,1.36-8.74c0-5.11-1.25-9.84-3.75-14.2C938.14,274.17,936.34,271.92,933.87,269.66z M931.11,298.1
			c-0.64,1.49-1.68,3.06-3.11,4.71c-1.44,1.65-3.19,3.06-5.27,4.23c-2.55,1.28-5.29,1.91-8.22,1.91c-4.42,0-8.35-1.44-11.81-4.31
			c-2.13-1.7-3.75-3.79-4.87-6.26c-1.12-2.47-1.68-5.04-1.68-7.7c0-2.13,0.36-4.2,1.08-6.22c0.72-2.02,1.8-3.91,3.23-5.66l1.36-1.44
			c1.7-1.65,3.63-2.9,5.78-3.75c2.15-0.85,4.4-1.28,6.74-1.28c2.61,0,5.13,0.53,7.58,1.6c3.35,1.49,5.98,3.76,7.9,6.82
			c1.91,3.06,2.87,6.34,2.87,9.85C932.71,293.15,932.18,295.65,931.11,298.1z"/>
		
			<linearGradient id="SVGID_00000103265398761042108430000015070646054981153939_" gradientUnits="userSpaceOnUse" x1="363.2216" y1="127.7138" x2="979.7061" y2="142.1345">
			<stop  offset="0" style="stop-color:#0047C6"/>
			<stop  offset="1" style="stop-color:#DB4682"/>
		</linearGradient>
		<path style="fill:url(#SVGID_00000103265398761042108430000015070646054981153939_);" d="M462.44,158.35h7.99
			c0.27,0,0.52-0.11,0.76-0.32c0.24-0.21,0.36-0.48,0.36-0.8l-0.16-32.05c0-0.75,0.21-1.12,0.64-1.12c0.27,0,0.56,0.24,0.88,0.72
			l20.14,32.05c0.43,0.69,0.83,1.12,1.2,1.28c0.37,0.16,1.04,0.24,2,0.24h5.67c0.32,0,0.6-0.11,0.84-0.32
			c0.24-0.21,0.36-0.48,0.36-0.8v-53.47c0-0.32-0.12-0.59-0.36-0.8c-0.24-0.21-0.52-0.32-0.84-0.32h-8.39
			c-0.32,0-0.6,0.11-0.84,0.32c-0.24,0.21-0.36,0.48-0.36,0.8l0.16,31.33c0,1.17-0.21,1.76-0.64,1.76c-0.37,0-0.85-0.53-1.44-1.6
			l-18.94-32.05c-0.21-0.37-0.51-0.56-0.88-0.56h-8.15c-0.32,0-0.6,0.11-0.84,0.32c-0.24,0.21-0.36,0.48-0.36,0.8v53.47
			c0,0.32,0.12,0.59,0.36,0.8C461.85,158.24,462.13,158.35,462.44,158.35z"/>
		
			<linearGradient id="SVGID_00000140000809540879889520000007582380876846442938_" gradientUnits="userSpaceOnUse" x1="363.7852" y1="103.6244" x2="980.2695" y2="118.0451">
			<stop  offset="0" style="stop-color:#0047C6"/>
			<stop  offset="1" style="stop-color:#DB4682"/>
		</linearGradient>
		<path style="fill:url(#SVGID_00000140000809540879889520000007582380876846442938_);" d="M517.99,112.23h7.51
			c0.43,0,0.77-0.15,1.04-0.44c0.27-0.29,0.4-0.62,0.4-1v-6.95c0-0.43-0.13-0.77-0.4-1.04c-0.27-0.27-0.61-0.4-1.04-0.4h-7.51
			c-0.37,0-0.71,0.13-1,0.4c-0.29,0.27-0.44,0.61-0.44,1.04v6.95c0,0.37,0.15,0.71,0.44,1
			C517.28,112.09,517.62,112.23,517.99,112.23z"/>
		
			<linearGradient id="SVGID_00000014609574329742130640000007310476537763108543_" gradientUnits="userSpaceOnUse" x1="363.251" y1="126.4572" x2="979.7354" y2="140.8779">
			<stop  offset="0" style="stop-color:#0047C6"/>
			<stop  offset="1" style="stop-color:#DB4682"/>
		</linearGradient>
		<path style="fill:url(#SVGID_00000014609574329742130640000007310476537763108543_);" d="M526.42,156.43
			c3.01,1.76,6.3,2.64,9.87,2.64c4.16,0,7.87-0.88,11.15-2.64c3.28-1.76,5.83-4.14,7.67-7.15c1.84-3.01,2.76-6.33,2.76-9.95v-35.49
			c0-0.37-0.15-0.7-0.44-1c-0.29-0.29-0.65-0.44-1.08-0.44H549c-0.43,0-0.79,0.15-1.08,0.44c-0.29,0.29-0.44,0.63-0.44,1v35.49
			c0,1.71-0.51,3.29-1.52,4.76c-1.01,1.47-2.37,2.62-4.08,3.48c-1.71,0.85-3.57,1.28-5.59,1.28c-2.61,0-4.82-0.92-6.63-2.76
			c-1.81-1.84-2.72-4.09-2.72-6.75v-15.5c0-0.43-0.13-0.77-0.4-1.04c-0.27-0.27-0.61-0.4-1.04-0.4h-7.51c-0.37,0-0.71,0.13-1,0.4
			c-0.29,0.27-0.44,0.61-0.44,1.04v15.5c0,3.57,0.89,6.87,2.68,9.91C521.01,152.28,523.41,154.67,526.42,156.43z"/>
		
			<linearGradient id="SVGID_00000075122569637404902610000012467941163513396662_" gradientUnits="userSpaceOnUse" x1="363.2835" y1="125.0712" x2="979.7678" y2="139.4919">
			<stop  offset="0" style="stop-color:#0047C6"/>
			<stop  offset="1" style="stop-color:#DB4682"/>
		</linearGradient>
		<path style="fill:url(#SVGID_00000075122569637404902610000012467941163513396662_);" d="M582.81,155.39
			c4.32,2.56,9.03,3.84,14.15,3.84c4,0,7.77-0.79,11.31-2.36c3.54-1.57,6.62-3.77,9.23-6.59c0.27-0.27,0.4-0.59,0.4-0.96
			c0-0.64-0.27-1.15-0.8-1.52l-3.2-2.88l-1.52-1.28c-0.27-0.27-0.64-0.4-1.12-0.4c-0.53,0-1.04,0.21-1.52,0.64
			c-1.71,1.71-3.65,3.02-5.83,3.96c-2.19,0.93-4.5,1.4-6.95,1.4c-3.3,0-6.35-0.84-9.15-2.52c-2.8-1.68-5.02-3.96-6.67-6.83
			c-1.65-2.88-2.48-5.99-2.48-9.35c0-3.36,0.83-6.47,2.48-9.35c1.65-2.88,3.88-5.16,6.67-6.83c2.8-1.68,5.85-2.52,9.15-2.52
			c2.56,0,5,0.52,7.31,1.56c2.32,1.04,4.33,2.49,6.03,4.36c0.21,0.27,0.48,0.4,0.8,0.4c0.32,0,0.61-0.13,0.88-0.4l5.75-4.96
			c0.27-0.21,0.4-0.51,0.4-0.88c0-0.32-0.11-0.59-0.32-0.8c-2.61-2.88-5.71-5.14-9.31-6.79c-3.6-1.65-7.45-2.48-11.55-2.48
			c-5.11,0-9.83,1.29-14.15,3.88c-4.32,2.59-7.74,6.07-10.27,10.47c-2.53,4.4-3.8,9.18-3.8,14.35c0,5.22,1.27,10.03,3.8,14.43
			C575.07,149.36,578.49,152.84,582.81,155.39z"/>
		
			<linearGradient id="SVGID_00000109712921214736722750000007964771735277153685_" gradientUnits="userSpaceOnUse" x1="363.3065" y1="124.0856" x2="979.7909" y2="138.5063">
			<stop  offset="0" style="stop-color:#0047C6"/>
			<stop  offset="1" style="stop-color:#DB4682"/>
		</linearGradient>
		<path style="fill:url(#SVGID_00000109712921214736722750000007964771735277153685_);" d="M633.08,158.51h31.25
			c0.48,0,0.88-0.16,1.2-0.48c0.32-0.32,0.48-0.72,0.48-1.2v-6.87c0-0.43-0.16-0.8-0.48-1.12c-0.32-0.32-0.72-0.48-1.2-0.48h-19.34
			c-0.43,0-0.8-0.17-1.12-0.52c-0.32-0.35-0.48-0.73-0.48-1.16v-42.52c0-0.43-0.16-0.81-0.48-1.16c-0.32-0.35-0.72-0.52-1.2-0.52
			h-8.63c-0.43,0-0.81,0.17-1.16,0.52c-0.35,0.35-0.52,0.73-0.52,1.16v52.67c0,0.48,0.17,0.88,0.52,1.2
			C632.27,158.35,632.65,158.51,633.08,158.51z"/>
		
			<linearGradient id="SVGID_00000071525478884166378720000005437292839073013175_" gradientUnits="userSpaceOnUse" x1="363.34" y1="122.6561" x2="979.8243" y2="137.0768">
			<stop  offset="0" style="stop-color:#0047C6"/>
			<stop  offset="1" style="stop-color:#DB4682"/>
		</linearGradient>
		<path style="fill:url(#SVGID_00000071525478884166378720000005437292839073013175_);" d="M680.63,158.27H717
			c0.43,0,0.77-0.15,1.04-0.44c0.27-0.29,0.4-0.63,0.4-1v-6.71c0-0.43-0.15-0.79-0.44-1.08c-0.29-0.29-0.63-0.44-1-0.44h-25.58
			c-0.91,0-1.51-0.19-1.8-0.56c-0.29-0.37-0.44-0.83-0.44-1.36v-8.47c0-0.43,0.12-0.84,0.36-1.24c0.24-0.4,0.71-0.6,1.4-0.6H711
			c0.37,0,0.69-0.12,0.96-0.36c0.27-0.24,0.4-0.55,0.4-0.92v-6.79c0-0.37-0.13-0.68-0.4-0.92c-0.27-0.24-0.59-0.36-0.96-0.36h-19.98
			c-0.8,0-1.31-0.09-1.52-0.28c-0.21-0.19-0.32-0.52-0.32-1v-0.24v-11.75c0-0.43,0.15-0.77,0.44-1.04c0.29-0.27,0.63-0.4,1-0.4
			h25.81c0.43,0,0.77-0.15,1.04-0.44c0.27-0.29,0.4-0.63,0.4-1v-6.71c0-0.43-0.13-0.77-0.4-1.04c-0.27-0.27-0.61-0.4-1.04-0.4
			h-35.81c-0.37,0-0.71,0.13-1,0.4c-0.29,0.27-0.44,0.61-0.44,1.04v52.67c0,0.37,0.15,0.71,0.44,1
			C679.92,158.12,680.26,158.27,680.63,158.27z"/>
		
			<linearGradient id="SVGID_00000019670771403152998640000006684607779289624986_" gradientUnits="userSpaceOnUse" x1="363.3722" y1="121.2795" x2="979.8566" y2="135.7002">
			<stop  offset="0" style="stop-color:#0047C6"/>
			<stop  offset="1" style="stop-color:#DB4682"/>
		</linearGradient>
		<path style="fill:url(#SVGID_00000019670771403152998640000006684607779289624986_);" d="M730.98,139.89
			c1.23,3.62,3.16,6.91,5.79,9.87c2.64,2.96,5.79,5.29,9.47,6.99c3.68,1.6,7.54,2.4,11.59,2.4c4.74,0,9.16-1.04,13.27-3.12
			c2.29-1.23,4.22-2.54,5.79-3.96c1.57-1.41,3.02-3.05,4.36-4.92c1.76-2.45,3.09-5.1,4-7.95c0.91-2.85,1.36-5.77,1.36-8.75
			c0-5.11-1.25-9.86-3.76-14.23c-1.12-2.24-2.92-4.49-5.4-6.75c-2.48-2.26-5.05-3.98-7.71-5.16c-4.26-1.86-8.63-2.66-13.11-2.4
			h-0.24c-4.58,0.27-8.38,1.24-11.39,2.92c-3.01,1.68-5.98,4.09-8.91,7.23c-2.24,2.61-3.92,5.51-5.04,8.71
			c-1.12,3.2-1.68,6.45-1.68,9.75c0,3.09,0.48,6.07,1.44,8.95L730.98,139.89z M740.77,124.3c0.72-2.02,1.8-3.92,3.24-5.67l1.36-1.44
			c1.7-1.65,3.64-2.9,5.79-3.76c2.16-0.85,4.41-1.28,6.75-1.28c2.61,0,5.14,0.53,7.59,1.6c3.36,1.49,5.99,3.77,7.91,6.83
			c1.92,3.06,2.88,6.35,2.88,9.87c0,2.56-0.53,5.06-1.6,7.51c-0.64,1.49-1.68,3.06-3.12,4.72c-1.44,1.65-3.2,3.06-5.27,4.24
			c-2.56,1.28-5.3,1.92-8.23,1.92c-4.42,0-8.37-1.44-11.83-4.32c-2.13-1.7-3.76-3.8-4.88-6.27c-1.12-2.48-1.68-5.05-1.68-7.71
			C739.69,128.41,740.05,126.33,740.77,124.3z"/>
		
			<linearGradient id="SVGID_00000183214903774557822860000018030503114303597750_" gradientUnits="userSpaceOnUse" x1="363.4186" y1="119.2929" x2="979.903" y2="133.7136">
			<stop  offset="0" style="stop-color:#0047C6"/>
			<stop  offset="1" style="stop-color:#DB4682"/>
		</linearGradient>
		<path style="fill:url(#SVGID_00000183214903774557822860000018030503114303597750_);" d="M834.56,158.19h15.35
			c5.01,0,9.63-1.24,13.87-3.72c4.24-2.48,7.59-5.83,10.07-10.07c2.48-4.24,3.72-8.86,3.72-13.87c0-5.01-1.24-9.64-3.72-13.91
			c-2.48-4.26-5.83-7.63-10.07-10.11c-4.24-2.48-8.86-3.72-13.87-3.72h-15.98c-0.48,0-0.88,0.17-1.2,0.52
			c-0.32,0.35-0.48,0.76-0.48,1.24v51.31c0,0.64,0.23,1.19,0.68,1.64C833.37,157.96,833.92,158.19,834.56,158.19z M842.55,114.07
			c0-0.27,0.09-0.49,0.28-0.68c0.19-0.19,0.41-0.28,0.68-0.28h6.39c3.14,0,6.05,0.79,8.71,2.36c2.66,1.57,4.78,3.69,6.35,6.35
			c1.57,2.67,2.36,5.57,2.36,8.71c0,3.14-0.79,6.05-2.36,8.71c-1.57,2.66-3.69,4.77-6.35,6.31c-2.66,1.55-5.57,2.32-8.71,2.32h-7.35
			V114.07z"/>
		
			<linearGradient id="SVGID_00000140004510009917009500000016681479665724122032_" gradientUnits="userSpaceOnUse" x1="363.4542" y1="117.7738" x2="979.9385" y2="132.1945">
			<stop  offset="0" style="stop-color:#0047C6"/>
			<stop  offset="1" style="stop-color:#DB4682"/>
		</linearGradient>
		<path style="fill:url(#SVGID_00000140004510009917009500000016681479665724122032_);" d="M889.47,158.27h36.36
			c0.43,0,0.77-0.15,1.04-0.44c0.27-0.29,0.4-0.63,0.4-1v-6.71c0-0.43-0.15-0.79-0.44-1.08c-0.29-0.29-0.63-0.44-1-0.44h-25.58
			c-0.91,0-1.51-0.19-1.8-0.56c-0.29-0.37-0.44-0.83-0.44-1.36v-8.47c0-0.43,0.12-0.84,0.36-1.24c0.24-0.4,0.71-0.6,1.4-0.6h20.06
			c0.37,0,0.69-0.12,0.96-0.36c0.27-0.24,0.4-0.55,0.4-0.92v-6.79c0-0.37-0.13-0.68-0.4-0.92c-0.27-0.24-0.59-0.36-0.96-0.36h-19.98
			c-0.8,0-1.31-0.09-1.52-0.28c-0.21-0.19-0.32-0.52-0.32-1v-0.24v-11.75c0-0.43,0.15-0.77,0.44-1.04c0.29-0.27,0.63-0.4,1-0.4
			h25.82c0.43,0,0.77-0.15,1.04-0.44c0.27-0.29,0.4-0.63,0.4-1v-6.71c0-0.43-0.13-0.77-0.4-1.04c-0.27-0.27-0.61-0.4-1.04-0.4
			h-35.81c-0.37,0-0.71,0.13-1,0.4c-0.29,0.27-0.44,0.61-0.44,1.04v52.67c0,0.37,0.15,0.71,0.44,1
			C888.76,158.12,889.09,158.27,889.47,158.27z"/>
		
			<linearGradient id="SVGID_00000075134384385038919910000005597925444450515081_" gradientUnits="userSpaceOnUse" x1="361.3681" y1="206.9548" x2="977.8524" y2="221.3755">
			<stop  offset="0" style="stop-color:#0047C6"/>
			<stop  offset="1" style="stop-color:#DB4682"/>
		</linearGradient>
		<path style="fill:url(#SVGID_00000075134384385038919910000005597925444450515081_);" d="M461.7,172.52
			c-0.29,0.29-0.44,0.65-0.44,1.09v10.12c0,0.43,0.14,0.8,0.44,1.09c0.29,0.29,0.62,0.44,0.98,0.44h6.2c0.72,0,1.34,0.24,1.85,0.71
			c0.51,0.47,0.76,1.07,0.76,1.79v58.74c0,0.94,0.47,1.41,1.41,1.41h12.95c0.36,0,0.69-0.13,0.98-0.38c0.29-0.25,0.43-0.6,0.43-1.03
			v-58.74c0-0.65,0.25-1.23,0.76-1.74c0.51-0.51,1.12-0.76,1.85-0.76h20.34c0.36,0,0.69-0.14,0.98-0.44
			c0.29-0.29,0.43-0.65,0.43-1.09v-10.12c0-0.43-0.15-0.8-0.43-1.09c-0.29-0.29-0.62-0.44-0.98-0.44h-47.54
			C462.31,172.09,461.98,172.24,461.7,172.52z"/>
		
			<linearGradient id="SVGID_00000069377175006149891640000013249044120208477880_" gradientUnits="userSpaceOnUse" x1="361.1341" y1="216.9552" x2="977.6185" y2="231.3759">
			<stop  offset="0" style="stop-color:#0047C6"/>
			<stop  offset="1" style="stop-color:#DB4682"/>
		</linearGradient>
		<path style="fill:url(#SVGID_00000069377175006149891640000013249044120208477880_);" d="M529.25,246.17c0,0.51,0.2,0.96,0.6,1.36
			c0.4,0.4,0.85,0.6,1.36,0.6h50.69c0.58,0,1.05-0.2,1.41-0.6c0.36-0.4,0.54-0.85,0.54-1.36v-9.36c0-0.58-0.18-1.05-0.54-1.41
			c-0.36-0.36-0.83-0.54-1.41-0.54h-37.42c-0.51,0-0.98-0.22-1.41-0.65c-0.43-0.43-0.65-0.91-0.65-1.41v-11.86
			c0-1.52,0.83-2.28,2.5-2.28h27.74c0.51,0,0.94-0.16,1.3-0.49c0.36-0.33,0.54-0.74,0.54-1.25v-9.35c0-0.51-0.18-0.93-0.54-1.25
			c-0.36-0.33-0.8-0.49-1.3-0.49h-27.41c-1.89,0-2.83-0.69-2.83-2.07v-7.83c0-0.58-0.18-1.05-0.54-1.41
			c-0.36-0.36-0.84-0.54-1.42-0.54h-9.25c-0.51,0-0.96,0.18-1.36,0.54c-0.4,0.36-0.6,0.84-0.6,1.41V246.17z"/>
		
			<linearGradient id="SVGID_00000039117162012041269120000015097446832201520295_" gradientUnits="userSpaceOnUse" x1="362.136" y1="174.1251" x2="978.6204" y2="188.5458">
			<stop  offset="0" style="stop-color:#0047C6"/>
			<stop  offset="1" style="stop-color:#DB4682"/>
		</linearGradient>
		<path style="fill:url(#SVGID_00000039117162012041269120000015097446832201520295_);" d="M531.21,185.36h50.48
			c0.58,0,1.07-0.22,1.47-0.65c0.4-0.43,0.6-0.91,0.6-1.41v-9.35c0-0.51-0.2-0.96-0.6-1.36c-0.4-0.4-0.89-0.6-1.47-0.6h-50.48
			c-0.51,0-0.96,0.18-1.36,0.54c-0.4,0.36-0.6,0.83-0.6,1.41v9.35c0,0.58,0.2,1.07,0.6,1.47
			C530.25,185.16,530.7,185.36,531.21,185.36z"/>
		
			<linearGradient id="SVGID_00000062168522966493877740000004710303204488341398_" gradientUnits="userSpaceOnUse" x1="361.4444" y1="203.6894" x2="977.9288" y2="218.1101">
			<stop  offset="0" style="stop-color:#0047C6"/>
			<stop  offset="1" style="stop-color:#DB4682"/>
		</linearGradient>
		<path style="fill:url(#SVGID_00000062168522966493877740000004710303204488341398_);" d="M621.12,188.03
			c3.81-2.28,7.96-3.43,12.46-3.43c3.48,0,6.8,0.71,9.95,2.12c3.15,1.41,5.89,3.39,8.21,5.93c0.29,0.36,0.65,0.54,1.09,0.54
			c0.43,0,0.83-0.18,1.2-0.54l7.83-6.74c0.36-0.29,0.54-0.69,0.54-1.2c0-0.43-0.15-0.8-0.43-1.09c-3.55-3.92-7.78-7-12.67-9.25
			c-4.89-2.25-10.14-3.37-15.72-3.37c-6.96,0-13.38,1.76-19.25,5.28c-5.87,3.52-10.53,8.27-13.98,14.25
			c-3.45,5.98-5.17,12.49-5.17,19.53c0,7.11,1.72,13.65,5.17,19.64c3.44,5.98,8.1,10.71,13.98,14.2c5.87,3.48,12.29,5.22,19.25,5.22
			c5.44,0,10.57-1.07,15.39-3.21c4.82-2.14,9.01-5.13,12.56-8.97c0.36-0.36,0.54-0.8,0.54-1.3c0-0.87-0.36-1.56-1.09-2.07
			l-4.35-3.92l-2.07-1.74c-0.36-0.36-0.87-0.54-1.52-0.54c-0.73,0-1.41,0.29-2.07,0.87c-2.32,2.32-4.97,4.12-7.94,5.38
			c-2.97,1.27-6.13,1.9-9.46,1.9c-4.5,0-8.65-1.14-12.46-3.43c-3.81-2.28-6.84-5.38-9.08-9.3c-2.25-3.92-3.37-8.16-3.37-12.73
			c0-4.57,1.12-8.81,3.37-12.73C614.28,193.41,617.31,190.31,621.12,188.03z"/>
		
			<linearGradient id="SVGID_00000104678714914996081660000001240492050451181980_" gradientUnits="userSpaceOnUse" x1="361.4856" y1="201.9304" x2="977.97" y2="216.3511">
			<stop  offset="0" style="stop-color:#0047C6"/>
			<stop  offset="1" style="stop-color:#DB4682"/>
		</linearGradient>
		<path style="fill:url(#SVGID_00000104678714914996081660000001240492050451181980_);" d="M679.59,247.91h10.88
			c0.36,0,0.71-0.14,1.03-0.43c0.33-0.29,0.49-0.65,0.49-1.09l-0.22-43.62c0-1.01,0.29-1.52,0.87-1.52c0.36,0,0.76,0.33,1.2,0.98
			l27.41,43.62c0.58,0.94,1.12,1.52,1.63,1.74c0.51,0.22,1.41,0.33,2.72,0.33h7.72c0.43,0,0.82-0.14,1.14-0.43
			c0.33-0.29,0.49-0.65,0.49-1.09v-72.78c0-0.43-0.16-0.8-0.49-1.09c-0.33-0.29-0.71-0.44-1.14-0.44h-11.42
			c-0.43,0-0.82,0.15-1.14,0.44c-0.33,0.29-0.49,0.65-0.49,1.09l0.22,42.64c0,1.6-0.29,2.39-0.87,2.39c-0.51,0-1.16-0.72-1.96-2.18
			l-25.78-43.62c-0.29-0.51-0.69-0.76-1.2-0.76h-11.1c-0.43,0-0.82,0.15-1.14,0.44c-0.33,0.29-0.49,0.65-0.49,1.09v72.78
			c0,0.44,0.16,0.8,0.49,1.09C678.77,247.77,679.16,247.91,679.59,247.91z"/>
		
			<linearGradient id="SVGID_00000052102783892540757750000005078290698400169139_" gradientUnits="userSpaceOnUse" x1="361.5279" y1="200.12" x2="978.0123" y2="214.5406">
			<stop  offset="0" style="stop-color:#0047C6"/>
			<stop  offset="1" style="stop-color:#DB4682"/>
		</linearGradient>
		<path style="fill:url(#SVGID_00000052102783892540757750000005078290698400169139_);" d="M818.62,188.73
			c-0.51,0-1.05,0.18-1.63,0.54c-0.43,0.29-1.49,1.02-3.15,2.17c-1.67,1.16-2.79,1.92-3.37,2.28c-0.87,0.73-1.3,1.56-1.3,2.5
			c0,0.73,0.18,1.45,0.54,2.18c1.81,3.55,2.72,7.4,2.72,11.53c0,2.9-0.49,5.75-1.47,8.54c-0.98,2.79-2.45,5.35-4.41,7.67
			c-2.32,2.9-5.15,5.11-8.49,6.64c-3.34,1.52-6.82,2.28-10.44,2.28c-5.95,0-11.31-1.96-16.1-5.87c-2.83-2.39-5-5.28-6.53-8.65
			c-1.52-3.37-2.28-6.87-2.28-10.5c0-6.02,1.96-11.42,5.87-16.21c2.03-2.61,4.53-4.7,7.51-6.26c2.97-1.56,6.09-2.48,9.35-2.77
			c1.52-0.14,2.28-0.91,2.28-2.28v-9.46c-0.07-0.65-0.31-1.2-0.71-1.63c-0.4-0.43-0.89-0.65-1.47-0.65h-0.22
			c-5.29,0.29-10.33,1.61-15.12,3.97c-4.79,2.36-8.96,5.71-12.51,10.06c-2.97,3.55-5.2,7.49-6.69,11.8
			c-1.49,4.32-2.23,8.72-2.23,13.22c0,5.73,1.2,11.26,3.59,16.59c2.39,5.33,5.84,9.92,10.33,13.76c3.34,2.97,7.14,5.24,11.42,6.8
			c4.28,1.56,8.7,2.34,13.27,2.34c5.8,0,11.37-1.21,16.7-3.64c5.33-2.43,9.77-5.93,13.33-10.5c2.97-3.55,5.22-7.49,6.74-11.8
			c1.52-4.31,2.28-8.76,2.28-13.33c0-7.03-1.74-13.6-5.22-19.69C820.65,189.28,819.78,188.73,818.62,188.73z"/>
		
			<linearGradient id="SVGID_00000055705118140490685150000017220069395563510926_" gradientUnits="userSpaceOnUse" x1="361.5646" y1="198.5534" x2="978.049" y2="212.9741">
			<stop  offset="0" style="stop-color:#0047C6"/>
			<stop  offset="1" style="stop-color:#DB4682"/>
		</linearGradient>
		<path style="fill:url(#SVGID_00000055705118140490685150000017220069395563510926_);" d="M859.74,233.61
			c-0.43-0.47-0.65-1-0.65-1.58v-57.87c0-0.58-0.22-1.1-0.65-1.58c-0.43-0.47-0.98-0.71-1.63-0.71h-11.75
			c-0.58,0-1.11,0.24-1.58,0.71c-0.47,0.47-0.71,1-0.71,1.58v71.69c0,0.65,0.23,1.2,0.71,1.63c0.47,0.43,1,0.65,1.58,0.65h42.54
			c0.65,0,1.2-0.22,1.63-0.65c0.44-0.43,0.65-0.98,0.65-1.63v-9.35c0-0.58-0.22-1.09-0.65-1.52c-0.43-0.43-0.98-0.65-1.63-0.65
			h-26.33C860.68,234.31,860.17,234.08,859.74,233.61z"/>
		
			<linearGradient id="SVGID_00000090259568188975764200000013687718605965899167_" gradientUnits="userSpaceOnUse" x1="361.6084" y1="196.6815" x2="978.0928" y2="211.1022">
			<stop  offset="0" style="stop-color:#0047C6"/>
			<stop  offset="1" style="stop-color:#DB4682"/>
		</linearGradient>
		<path style="fill:url(#SVGID_00000090259568188975764200000013687718605965899167_);" d="M965.69,188.73
			c-0.51,0-1.05,0.18-1.63,0.54c-0.43,0.29-1.49,1.02-3.15,2.17c-1.67,1.16-2.79,1.92-3.37,2.28c-0.87,0.73-1.3,1.56-1.3,2.5
			c0,0.73,0.18,1.45,0.54,2.18c1.81,3.55,2.72,7.4,2.72,11.53c0,2.9-0.49,5.75-1.47,8.54c-0.98,2.79-2.45,5.35-4.41,7.67
			c-2.32,2.9-5.15,5.11-8.49,6.64c-3.34,1.52-6.82,2.28-10.44,2.28c-5.95,0-11.31-1.96-16.1-5.87c-2.83-2.39-5-5.28-6.53-8.65
			c-1.52-3.37-2.28-6.87-2.28-10.5c0-6.02,1.96-11.42,5.87-16.21c2.03-2.61,4.53-4.7,7.51-6.26c2.97-1.56,6.09-2.48,9.35-2.77
			c1.52-0.14,2.28-0.91,2.28-2.28v-9.46c-0.07-0.65-0.31-1.2-0.71-1.63c-0.4-0.43-0.89-0.65-1.47-0.65h-0.22
			c-5.29,0.29-10.33,1.61-15.12,3.97c-4.79,2.36-8.96,5.71-12.51,10.06c-2.97,3.55-5.2,7.49-6.69,11.8
			c-1.49,4.32-2.23,8.72-2.23,13.22c0,5.73,1.2,11.26,3.59,16.59c2.39,5.33,5.84,9.92,10.33,13.76c3.34,2.97,7.14,5.24,11.42,6.8
			c4.28,1.56,8.7,2.34,13.27,2.34c5.8,0,11.37-1.21,16.7-3.64c5.33-2.43,9.77-5.93,13.33-10.5c2.97-3.55,5.22-7.49,6.74-11.8
			c1.52-4.31,2.28-8.76,2.28-13.33c0-7.03-1.74-13.6-5.22-19.69C967.72,189.28,966.85,188.73,965.69,188.73z"/>
		
			<linearGradient id="SVGID_00000098185236669657343860000015245367491527273614_" gradientUnits="userSpaceOnUse" x1="361.6591" y1="194.5136" x2="978.1434" y2="208.9343">
			<stop  offset="0" style="stop-color:#0047C6"/>
			<stop  offset="1" style="stop-color:#DB4682"/>
		</linearGradient>
		<path style="fill:url(#SVGID_00000098185236669657343860000015245367491527273614_);" d="M1058.59,229.96
			c3.19-6.02,4.79-12.66,4.79-19.91c0-1.09-0.47-1.92-1.41-2.5c-0.94-0.58-2.28-0.87-4.03-0.87h-23.17c-0.58,0-1.09,0.22-1.52,0.65
			c-0.44,0.43-0.65,0.94-0.65,1.52v7.94c0,0.58,0.22,1.09,0.65,1.52c0.44,0.43,0.94,0.65,1.52,0.65h14.03
			c-1.89,5-4.82,9.01-8.81,12.02c-3.99,3.01-8.63,4.51-13.92,4.51c-4.57,0-8.81-1.14-12.73-3.43c-3.92-2.28-7.02-5.38-9.3-9.3
			c-2.28-3.92-3.43-8.16-3.43-12.73c0-4.57,1.14-8.81,3.43-12.73c2.28-3.92,5.38-7.02,9.3-9.3c3.92-2.28,8.16-3.43,12.73-3.43
			l2.83,0.11c1.23,0,1.96-0.58,2.18-1.74l1.74-9.46c0.14-0.65,0.04-1.23-0.33-1.74c-0.36-0.51-0.87-0.8-1.52-0.87
			c-1.6-0.22-3.23-0.33-4.89-0.33c-7.18,0-13.8,1.76-19.85,5.28c-6.06,3.52-10.84,8.3-14.36,14.36c-3.52,6.06-5.28,12.67-5.28,19.85
			s1.76,13.8,5.28,19.85c3.52,6.06,8.3,10.84,14.36,14.36c6.05,3.52,12.67,5.28,19.85,5.28c7.11,0,13.51-1.76,19.2-5.28
			C1050.96,240.75,1055.4,235.98,1058.59,229.96z"/>
		
			<linearGradient id="SVGID_00000069377741430309613600000017636560947891349934_" gradientUnits="userSpaceOnUse" x1="361.6935" y1="193.0423" x2="978.1779" y2="207.463">
			<stop  offset="0" style="stop-color:#0047C6"/>
			<stop  offset="1" style="stop-color:#DB4682"/>
		</linearGradient>
		<path style="fill:url(#SVGID_00000069377741430309613600000017636560947891349934_);" d="M1094.06,246.17v-72.23
			c0-0.58-0.2-1.07-0.6-1.47c-0.4-0.4-0.85-0.6-1.36-0.6h-10.88c-0.51,0-0.98,0.2-1.41,0.6c-0.43,0.4-0.65,0.89-0.65,1.47v72.23
			c0,0.51,0.2,0.96,0.6,1.36c0.4,0.4,0.89,0.6,1.47,0.6h10.88c0.58,0,1.05-0.2,1.41-0.6
			C1093.88,247.13,1094.06,246.68,1094.06,246.17z"/>
		
			<linearGradient id="SVGID_00000176730314301656616260000014010684785266123669_" gradientUnits="userSpaceOnUse" x1="361.7176" y1="192.013" x2="978.202" y2="206.4337">
			<stop  offset="0" style="stop-color:#0047C6"/>
			<stop  offset="1" style="stop-color:#DB4682"/>
		</linearGradient>
		<path style="fill:url(#SVGID_00000176730314301656616260000014010684785266123669_);" d="M1157.91,224.74
			c0.58,0.43,0.94,0.98,1.09,1.63l5.33,20.23c0.07,0.43,0.34,0.82,0.82,1.14c0.47,0.33,0.93,0.49,1.36,0.49h10.66
			c0.72,0,1.09-0.4,1.09-1.2v-0.33L1159,173.5c-0.15-0.43-0.43-0.8-0.87-1.09c-0.44-0.29-0.87-0.43-1.31-0.43h-22.63
			c-0.51,0-0.96,0.16-1.36,0.49c-0.4,0.33-0.67,0.71-0.82,1.14l-19.25,73.21c-0.07,0.36,0,0.69,0.22,0.98
			c0.22,0.29,0.51,0.43,0.87,0.43h10.66c0.44,0,0.89-0.16,1.36-0.49c0.47-0.33,0.74-0.74,0.82-1.25l5.33-20.12
			c0.14-0.65,0.51-1.2,1.09-1.63c0.58-0.43,1.2-0.65,1.85-0.65h21.1C1156.72,224.09,1157.33,224.31,1157.91,224.74z M1154.38,211.69
			c-0.4,0.51-0.96,0.76-1.69,0.76h-14.36c-0.65,0-1.16-0.18-1.52-0.54c-0.36-0.36-0.54-0.83-0.54-1.41l0.11-0.54l5.98-22.41
			c0.07-0.58,0.4-1.09,0.98-1.52c0.58-0.43,1.2-0.65,1.85-0.65h0.65c0.65,0,1.27,0.22,1.85,0.65c0.58,0.43,0.91,0.94,0.98,1.52
			l6.09,22.41C1154.9,210.6,1154.78,211.18,1154.38,211.69z"/>
		
			<linearGradient id="SVGID_00000047036896389036043970000010398089419390097033_" gradientUnits="userSpaceOnUse" x1="359.6736" y1="279.3916" x2="976.158" y2="293.8123">
			<stop  offset="0" style="stop-color:#0047C6"/>
			<stop  offset="1" style="stop-color:#DB4682"/>
		</linearGradient>
		<path style="fill:url(#SVGID_00000047036896389036043970000010398089419390097033_);" d="M861.91,266.71
			c-4.23-2.47-8.84-3.71-13.84-3.71h-15.96c-0.48,0-0.88,0.17-1.2,0.52c-0.32,0.35-0.48,0.76-0.48,1.24v51.22
			c0,0.64,0.23,1.18,0.68,1.64c0.45,0.45,1,0.68,1.64,0.68h15.32c5,0,9.61-1.24,13.84-3.71c4.23-2.47,7.58-5.82,10.05-10.05
			c2.47-4.23,3.71-8.84,3.71-13.84c0-5-1.24-9.63-3.71-13.88C869.48,272.54,866.13,269.18,861.91,266.71z M863.1,299.38
			c-1.57,2.66-3.68,4.76-6.34,6.3c-2.66,1.54-5.56,2.31-8.7,2.31h-7.34v-33.75c0-0.27,0.09-0.49,0.28-0.68
			c0.19-0.19,0.41-0.28,0.68-0.28h6.38c3.14,0,6.04,0.79,8.7,2.35c2.66,1.57,4.77,3.68,6.34,6.34c1.57,2.66,2.35,5.56,2.35,8.7
			C865.46,293.82,864.67,296.72,863.1,299.38z"/>
		
			<linearGradient id="SVGID_00000112601996679843663000000008696302033625117315_" gradientUnits="userSpaceOnUse" x1="359.7653" y1="275.475" x2="976.2496" y2="289.8957">
			<stop  offset="0" style="stop-color:#0047C6"/>
			<stop  offset="1" style="stop-color:#DB4682"/>
		</linearGradient>
		<path style="fill:url(#SVGID_00000112601996679843663000000008696302033625117315_);" d="M1034.03,262.84h-7.9
			c-0.48,0-0.9,0.29-1.28,0.88l-12.05,19.95c-0.05,0.11-0.17,0.28-0.36,0.52c-0.19,0.24-0.47,0.36-0.84,0.36h-0.16
			c-0.37,0-0.68-0.11-0.92-0.32c-0.24-0.21-0.39-0.37-0.44-0.48l-12.13-20.1c-0.27-0.53-0.67-0.8-1.2-0.8h-7.82
			c-0.37,0-0.69,0.15-0.96,0.44c-0.27,0.29-0.4,0.63-0.4,1v52.89c0,0.37,0.13,0.71,0.4,1c0.27,0.29,0.58,0.44,0.96,0.44h7.74
			c0.43,0,0.77-0.15,1.04-0.44c0.27-0.29,0.4-0.62,0.4-1v-31.75c0-0.48,0.11-0.72,0.32-0.72c0.16,0,0.4,0.24,0.72,0.72l8.62,12.21
			c0.37,0.53,0.74,0.88,1.12,1.04c0.37,0.16,1.06,0.24,2.07,0.24h1.36c0.85,0,1.45-0.11,1.8-0.32c0.35-0.21,0.76-0.66,1.24-1.36
			l8.38-11.89c0.27-0.43,0.51-0.64,0.72-0.64c0.21,0,0.32,0.27,0.32,0.8v31.67c0,0.43,0.13,0.77,0.4,1.04
			c0.27,0.27,0.61,0.4,1.04,0.4h7.82c0.37,0,0.69-0.15,0.96-0.44c0.27-0.29,0.4-0.62,0.4-1v-52.89c0-0.37-0.13-0.7-0.4-1
			C1034.72,262.98,1034.4,262.84,1034.03,262.84z"/>
		
			<linearGradient id="SVGID_00000177483855387043030520000013273611267760232589_" gradientUnits="userSpaceOnUse" x1="359.7979" y1="274.0803" x2="976.2822" y2="288.501">
			<stop  offset="0" style="stop-color:#0047C6"/>
			<stop  offset="1" style="stop-color:#DB4682"/>
		</linearGradient>
		<path style="fill:url(#SVGID_00000177483855387043030520000013273611267760232589_);" d="M1081.42,262.84h-34.86
			c-0.27,0-0.51,0.11-0.72,0.32c-0.21,0.21-0.32,0.48-0.32,0.8v7.42c0,0.32,0.11,0.59,0.32,0.8c0.21,0.21,0.45,0.32,0.72,0.32h4.55
			c0.53,0,0.98,0.17,1.36,0.52c0.37,0.35,0.56,0.79,0.56,1.32v43.08c0,0.69,0.35,1.04,1.04,1.04h9.49c0.27,0,0.51-0.09,0.72-0.28
			c0.21-0.19,0.32-0.44,0.32-0.76v-43.08c0-0.48,0.19-0.9,0.56-1.28c0.37-0.37,0.82-0.56,1.36-0.56h14.92
			c0.27,0,0.51-0.11,0.72-0.32c0.21-0.21,0.32-0.48,0.32-0.8v-7.42c0-0.32-0.11-0.58-0.32-0.8
			C1081.92,262.94,1081.68,262.84,1081.42,262.84z"/>
		
			<linearGradient id="SVGID_00000098939149464348752510000008710198406848923544_" gradientUnits="userSpaceOnUse" x1="359.3627" y1="292.6852" x2="975.847" y2="307.1059">
			<stop  offset="0" style="stop-color:#0047C6"/>
			<stop  offset="1" style="stop-color:#DB4682"/>
		</linearGradient>
		<path style="fill:url(#SVGID_00000098939149464348752510000008710198406848923544_);" d="M1099.93,307.2l-3.19-1.28
			c-0.48-0.27-0.85-0.21-1.12,0.16c-0.85,1.44-1.52,2.59-1.99,3.47c-0.48,0.88-0.72,1.48-0.72,1.79c0,0.16,0.13,0.37,0.4,0.64
			c0.64,0.53,1.86,1.2,3.67,1.99c0.32,0.16,0.61,0.19,0.88,0.08c0.27-0.11,0.45-0.29,0.56-0.56l1.91-5.35
			c0.05-0.21,0.04-0.4-0.04-0.56C1100.21,307.43,1100.09,307.3,1099.93,307.2z"/>
		
			<linearGradient id="SVGID_00000058576942859364620090000008347784235638068665_" gradientUnits="userSpaceOnUse" x1="359.8218" y1="273.1037" x2="976.3062" y2="287.5244">
			<stop  offset="0" style="stop-color:#0047C6"/>
			<stop  offset="1" style="stop-color:#DB4682"/>
		</linearGradient>
		<path style="fill:url(#SVGID_00000058576942859364620090000008347784235638068665_);" d="M1126.42,291.28
			c-1.97-1.04-4.87-2.25-8.7-3.63c-1.54-0.53-3.42-1.3-5.62-2.31c-2.21-1.01-3.68-1.76-4.43-2.23c-1.86-1.17-2.79-2.55-2.79-4.15
			c0-1.01,0.41-2.01,1.24-2.99c0.82-0.98,1.96-1.82,3.39-2.51c1.91-0.74,3.96-1.12,6.14-1.12c1.86,0,3.72,0.27,5.58,0.8
			c1.6,0.43,3.48,1.25,5.66,2.47c0.27,0.16,0.53,0.24,0.8,0.24c0.32,0,0.56-0.08,0.72-0.24l0.96-1.36c1.54-2.18,2.45-3.56,2.71-4.15
			c0.05-0.11,0-0.29-0.16-0.56c-0.16-0.27-0.37-0.5-0.64-0.72c-1.44-1.22-2.98-2.26-4.63-3.11c-1.81-0.85-3.94-1.49-6.38-1.91
			c-2.45-0.43-4.95-0.58-7.5-0.48c-3.51,0.37-6.62,1.34-9.33,2.91c-2.71,1.57-4.83,3.52-6.34,5.86c-1.52,2.34-2.27,4.81-2.27,7.42
			c0,2.5,0.74,4.92,2.23,7.26c1.22,1.76,3.1,3.23,5.62,4.43c2.53,1.2,5.81,2.49,9.85,3.87c2.66,0.85,4.76,1.62,6.3,2.31
			c1.54,0.69,2.61,1.41,3.19,2.15c0.9,1.28,1.36,2.58,1.36,3.91c0,1.81-0.84,3.32-2.51,4.55c-1.68,1.22-3.84,1.84-6.5,1.84
			l-3.35-0.08c-0.91,0-1.41,0.43-1.52,1.28c-0.11,0.48-0.19,1-0.24,1.56c-0.05,0.56-0.11,1.05-0.16,1.48l-0.32,2.31
			c-0.11,0.48-0.05,0.84,0.16,1.08c0.21,0.24,0.59,0.39,1.12,0.44c1.28,0.21,2.37,0.32,3.27,0.32c3.88,0,7.31-0.65,10.29-1.95
			c2.98-1.3,5.28-3.1,6.9-5.39c1.62-2.29,2.43-4.92,2.43-7.9c0-3.08-0.6-5.54-1.8-7.38
			C1129.97,293.75,1128.38,292.32,1126.42,291.28z"/>
		
			<linearGradient id="SVGID_00000119816828802971001120000006017799265525675959_" gradientUnits="userSpaceOnUse" x1="359.8517" y1="271.7805" x2="976.3361" y2="286.2012">
			<stop  offset="0" style="stop-color:#0047C6"/>
			<stop  offset="1" style="stop-color:#DB4682"/>
		</linearGradient>
		<path style="fill:url(#SVGID_00000119816828802971001120000006017799265525675959_);" d="M1180.51,263.16
			c-0.21-0.21-0.45-0.32-0.72-0.32h-34.86c-0.27,0-0.51,0.11-0.72,0.32c-0.21,0.21-0.32,0.48-0.32,0.8v7.42
			c0,0.32,0.11,0.59,0.32,0.8c0.21,0.21,0.45,0.32,0.72,0.32h4.55c0.53,0,0.98,0.17,1.36,0.52c0.37,0.35,0.56,0.79,0.56,1.32v43.08
			c0,0.69,0.35,1.04,1.04,1.04h9.49c0.27,0,0.51-0.09,0.72-0.28c0.21-0.19,0.32-0.44,0.32-0.76v-43.08c0-0.48,0.19-0.9,0.56-1.28
			c0.37-0.37,0.82-0.56,1.36-0.56h14.92c0.27,0,0.51-0.11,0.72-0.32c0.21-0.21,0.32-0.48,0.32-0.8v-7.42
			C1180.83,263.63,1180.72,263.37,1180.51,263.16z"/>
		
			<linearGradient id="SVGID_00000050657239683756356570000005948970236589254816_" gradientUnits="userSpaceOnUse" x1="363.5493" y1="113.7051" x2="980.0337" y2="128.1258">
			<stop  offset="0" style="stop-color:#0047C6"/>
			<stop  offset="1" style="stop-color:#DB4682"/>
		</linearGradient>
		<path style="fill:url(#SVGID_00000050657239683756356570000005948970236589254816_);" d="M968.72,150.96h91.91
			c1.56,0,2.89-0.56,4.01-1.67c1.11-1.12,1.67-2.46,1.67-4.01v-24.73h106.27c1.56,0,2.89-0.56,4.01-1.67
			c1.11-1.12,1.67-2.45,1.67-4.01c0-1.56-0.56-2.84-1.67-3.84c-1.12-1-2.45-1.51-4.01-1.51h-111.95c-3.57,0-5.35,1.78-5.35,5.35
			v25.06h-86.56c-3.56,0-5.35,1.78-5.35,5.35c0,1.56,0.5,2.89,1.5,4.01C965.88,150.41,967.16,150.96,968.72,150.96z"/>
		
			<linearGradient id="SVGID_00000093164207039249073800000001567826677805867677_" gradientUnits="userSpaceOnUse" x1="359.6566" y1="280.1177" x2="976.1411" y2="294.5384">
			<stop  offset="0" style="stop-color:#0047C6"/>
			<stop  offset="1" style="stop-color:#DB4682"/>
		</linearGradient>
		<path style="fill:url(#SVGID_00000093164207039249073800000001567826677805867677_);" d="M803.03,284.65h-0.33
			c-1.56-0.45-3.12-0.33-4.68,0.33c-1.56,0.67-2.56,1.78-3.01,3.34l-0.33,2.01c0,3.12,1.34,5.01,4.01,5.68h0.33
			c1.56,0.67,3.12,0.67,4.68,0c1.56-0.67,2.56-1.89,3.01-3.67c0-0.45,0.05-0.78,0.17-1c0.11-0.22,0.17-0.56,0.17-1
			C807.04,287.65,805.7,285.76,803.03,284.65z"/>
		
			<linearGradient id="SVGID_00000003817685418714188820000009550242148749159317_" gradientUnits="userSpaceOnUse" x1="359.5538" y1="284.5147" x2="976.0381" y2="298.9354">
			<stop  offset="0" style="stop-color:#0047C6"/>
			<stop  offset="1" style="stop-color:#DB4682"/>
		</linearGradient>
		<path style="fill:url(#SVGID_00000003817685418714188820000009550242148749159317_);" d="M780.13,285.13H735h-35.74h-30.03h-15.1
			h-51.35h-14.42h-44.79H521.9h-59.21c-3.57,0-5.35,1.78-5.35,5.35c0,3.79,1.78,5.68,5.35,5.68h59.21h21.66h44.79h14.42h51.35h15.1
			h30.03H735h45.13c3.56,0,5.35-1.9,5.35-5.68C785.48,286.91,783.69,285.13,780.13,285.13z"/>
		
			<linearGradient id="SVGID_00000120525201602653789640000012691893810092192918_" gradientUnits="userSpaceOnUse" x1="363.1293" y1="131.6632" x2="979.6136" y2="146.0839">
			<stop  offset="0" style="stop-color:#0047C6"/>
			<stop  offset="1" style="stop-color:#DB4682"/>
		</linearGradient>
		<path style="fill:url(#SVGID_00000120525201602653789640000012691893810092192918_);" d="M948,150.96h0.33
			c1.56,0.67,3.12,0.67,4.68,0c1.56-0.67,2.56-1.89,3.01-3.67c0-0.45,0.05-0.78,0.17-1c0.11-0.22,0.17-0.56,0.17-1
			c0-2.67-1.34-4.57-4.01-5.68h-0.33c-1.56-0.45-3.12-0.33-4.68,0.33c-1.56,0.67-2.56,1.78-3.01,3.34l-0.33,2.01
			C943.99,148.4,945.32,150.3,948,150.96z"/>
	</g>
	<path id="Path_0" class="st33" d="M209.21,0.7c0.79,0.86,12.11,16.35,25.16,34.42c13.06,18.07,28.42,39.43,34.14,47.46
		c5.73,8.03,18.89,26.81,29.27,41.73c10.37,14.92,27.87,40.5,38.89,56.85c11.03,16.35,26.98,40.29,35.45,53.2
		c8.46,12.9,18.66,28.63,22.65,34.95c4,6.31,12.42,19.92,18.72,30.25c6.3,10.33,16.41,27.46,22.45,38.08
		c6.05,10.61,15.11,27.75,20.12,38.08c5.02,10.33,10.36,22.53,11.86,27.12c1.51,4.59,2.45,9.04,2.11,9.91
		c-0.54,1.3-2.1,1.44-9.46,0.78c-6.2-0.55-11.19-1.77-16.89-4.14c-4.44-1.85-10.9-5.24-14.34-7.54c-3.44-2.31-10.19-7.96-15-12.56
		c-4.81-4.59-12.1-12.35-16.2-17.22c-4.11-4.88-9.82-11.92-12.71-15.65c-2.88-3.73-12.23-16.64-20.77-28.69
		c-8.54-12.05-21.16-29.66-28.02-39.12c-6.86-9.47-16.48-22.15-21.36-28.17c-4.88-6.03-13.84-16.29-19.91-22.81
		c-6.06-6.53-16.66-17.03-23.54-23.35c-6.88-6.32-16.51-14.15-21.38-17.41c-4.88-3.25-11.21-6.74-14.08-7.75
		c-2.87-1-8.5-2.1-12.52-2.42c-6.23-0.51-8.14-0.23-12.96,1.89c-3.6,1.58-7.33,4.38-10.3,7.7c-2.55,2.87-5.94,7.79-7.52,10.95
		c-1.58,3.15-5.04,11.6-7.68,18.78c-2.65,7.17-10.02,28.29-16.4,46.94c-6.37,18.64-14.81,42.11-18.76,52.16
		c-3.94,10.05-10.43,24.83-14.41,32.86c-3.98,8.03-9.58,18.12-12.42,22.43c-2.85,4.3-7.7,10.37-10.79,13.48
		c-3.09,3.11-7.96,7.16-10.83,8.98c-2.87,1.84-8.62,5.05-12.78,7.14c-4.16,2.08-11.2,5.04-15.65,6.57
		c-7.54,2.6-9.58,2.81-30.51,3.23c-20.76,0.43-23.09,0.28-31.29-1.89c-4.88-1.28-9.47-2.86-10.21-3.49
		c-0.75-0.64-1.35-1.87-1.34-2.72c0.01-0.87,6.43-9.08,14.26-18.26c7.83-9.18,20.58-25.14,28.33-35.47
		c7.74-10.33,19.82-27.47,26.84-38.08c7.02-10.62,17.7-27.75,23.73-38.08c6.04-10.33,15.17-26.76,20.29-36.51
		c5.11-9.75,13.35-26.18,18.3-36.51c4.94-10.33,11.62-24.88,14.84-32.34c4.18-9.69,5.66-14.3,5.21-16.17
		c-0.35-1.44-5.13-14.34-10.61-28.69c-5.49-14.34-10.37-26.55-10.87-27.12c-0.58-0.68-3.72-0.04-8.98,1.83
		c-4.44,1.58-14.19,3.87-21.65,5.09c-7.46,1.21-17.32,3.56-21.91,5.19c-4.59,1.65-13.75,6.06-20.34,9.82
		c-6.6,3.76-12.24,6.79-12.52,6.74c-0.29-0.04-6.62-7.83-14.08-17.33c-7.46-9.48-15.21-19.53-17.21-22.32
		c-3.59-5-3.62-5.13-1.83-7.74c1-1.46,4.29-4.46,7.3-6.67c3.01-2.2,7.82-4.99,10.69-6.2c2.87-1.2,8.26-2.9,12-3.77
		c3.72-0.87,10.77-2.07,15.65-2.65c4.87-0.59,13.09-2.28,18.26-3.76c5.21-1.49,12.64-4.62,16.69-7.03
		c4.02-2.39,9.53-6.35,12.26-8.81c2.72-2.45,5.54-4.31,6.26-4.12s3.65,5.51,6.52,11.82c2.87,6.3,8.16,18,11.77,25.99
		c3.6,7.99,7.39,18.05,8.43,22.35c1.03,4.3,5.12,18.24,9.1,30.98c3.97,12.74,7.57,22.82,8,22.43c0.44-0.41,4.57-10.36,9.18-22.12
		c4.61-11.77,13.09-35.24,18.84-52.16c5.75-16.93,13.19-40.4,16.53-52.16c3.35-11.77,6.63-23.5,7.29-26.08
		C207.62-0.24,207.98-0.66,209.21,0.7z M211.84,240.23c3.15,0.25,7.5,0.92,9.65,1.47c2.15,0.56,5.04,2.07,6.42,3.36
		c1.7,1.59,3.04,4.72,4.12,9.65c1.55,7.07,1.52,7.55-0.84,15.13c-1.76,5.65-2.97,7.92-4.37,8.16c-1.1,0.19-2.95,2.45-4.3,5.22
		c-1.29,2.68-2.35,5.35-2.33,5.93c0.02,0.57-0.91,2.1-2.07,3.39c-1.6,1.78-3.62,2.47-8.37,2.87c-3.44,0.28-6.26,0.99-6.26,1.56
		s1.19,7.26,2.65,14.87c1.45,7.6,3.21,15.14,3.91,16.73c0.69,1.6,1.62,2.89,2.04,2.87c0.43-0.02,7-1.68,14.6-3.69
		c7.6-2,15.81-3.65,18.26-3.65s6.11,0.82,8.17,1.83c2.38,1.16,3.95,2.77,4.31,4.43c0.41,1.83-0.01,3.01-1.39,3.95
		c-1.21,0.83-4.78,1.3-9.26,1.22c-6.54-0.13-8,0.24-14.08,3.58c-3.84,2.11-5.87,3.71-4.69,3.69c1.15-0.01,2.67,0.58,3.39,1.34
		c0.72,0.74,1.78,6.04,2.37,11.78c0.58,5.74,1.83,13.25,2.76,16.69c0.94,3.44,1.75,9.88,1.8,14.3c0.07,5.81-0.33,8.51-1.46,9.75
		c-1.06,1.17-2.48,1.51-4.43,1.08c-1.92-0.42-3.64-2-5.22-4.79c-1.49-2.64-3.11-4.18-4.43-4.2c-1.15-0.03-4.2,1.54-6.78,3.48
		c-2.59,1.94-6.57,4.5-8.87,5.66c-2.29,1.18-7.23,2.94-10.95,3.92c-4.39,1.15-9.35,1.63-14.08,1.37c-5.55-0.3-8.25-1.01-11.25-2.97
		c-2.16-1.42-5.55-4.92-7.53-7.79c-1.98-2.87-4.63-8.03-5.88-11.47c-1.84-5.04-2.27-8.49-2.24-17.73
		c0.02-8.96,0.61-13.64,2.69-21.38c1.47-5.46,3.69-12.73,4.94-16.17c1.96-5.37,3.77-7.7,12.86-16.47
		c5.82-5.61,12.58-11.71,15.03-13.56c2.44-1.84,4.09-3.67,3.65-4.07c-0.45-0.39-3.73-2.15-7.32-3.91c-3.7-1.82-7.28-4.43-8.29-6.06
		c-0.97-1.58-1.74-4.52-1.7-6.52c0.03-2.01,0.81-6.24,1.73-9.39c1.24-4.24,3.55-7.92,8.79-14.08c3.91-4.59,8.5-8.91,10.2-9.6
		c1.7-0.7,4.26-1.48,5.7-1.74C204.92,239.97,208.67,239.97,211.84,240.23z M337.8,301.27c4.6-0.1,6.52,0.24,6.51,1.16
		c0,0.72-2.85,11.39-6.32,23.73c-3.46,12.33-6.51,23.25-6.77,24.25c-0.4,1.6,0.39,1.83,6.32,1.83c3.72,0,7.01,0.47,7.3,1.04
		c0.28,0.57-0.3,3.7-1.3,6.95c-1,3.25-2.53,6.08-3.39,6.28c-0.87,0.21-2.33,1.89-3.25,3.74c-0.92,1.86-2,5.01-2.4,7.02
		c-0.54,2.73-0.3,4.05,0.98,5.22c1.58,1.45,1.56,2.46-1.89,25.56l-31.41,0.38c-17.26,0.21-32.45,0.09-33.75-0.26
		c-2.29-0.63-2.34-0.95-1.83-26.19l-13.56-1.04v-5.82c0-3.68,0.57-6.48,1.56-7.6c0.86-0.99,2.39-1.77,3.39-1.74
		c1,0.02,2.02-0.54,2.25-1.26c0.24-0.72,0.71-2.83,1.66-8.08l-9.91,0.52c-9.39,0.49-9.91,0.41-9.91-1.56c0-1.15,0.7-2.33,1.56-2.61
		c0.86-0.29,5.43-0.53,10.17-0.53c4.74-0.01,9.54-0.27,10.69-0.57c1.73-0.46,3.15-4.36,8.35-23.03c3.44-12.35,6.49-22.9,6.78-23.42
		c0.28-0.53,12.02-1.6,26.08-2.38C319.77,302.06,334.21,301.35,337.8,301.27z M326.06,366.56c2.29-0.22-0.05-0.4-5.22-0.4
		c-5.16,0.01-7.04,0.19-4.17,0.41C319.54,366.78,323.77,366.78,326.06,366.56z M320.85,382.21c2.29-0.23,0.89-0.42-3.13-0.42
		c-4.02-0.01-5.89,0.18-4.17,0.41C315.26,382.43,318.55,382.43,320.85,382.21z"/>
</g>
</svg>
